<svg xmlns="http://www.w3.org/2000/svg" viewBox="0 0 48 48" width="48" height="48">
  <defs>
    <linearGradient id="g" x1="0" y1="0" x2="48" y2="0" gradientUnits="userSpaceOnUse">
      <stop offset="0" stop-color="#4f53ac"/>
      <stop offset="1" stop-color="#04b7ff"/>
    </linearGradient>
  </defs>
  <g stroke="url(#g)" stroke-width="2.6">
    <line x1="29.50" y1="24.00" x2="47.50" y2="24.00"/>
    <line x1="29.08" y1="26.10" x2="45.71" y2="32.99"/>
    <line x1="27.89" y1="27.89" x2="40.62" y2="40.62"/>
    <line x1="26.10" y1="29.08" x2="32.99" y2="45.71"/>
    <line x1="24.00" y1="29.50" x2="24.00" y2="47.50"/>
    <line x1="21.90" y1="29.08" x2="15.01" y2="45.71"/>
    <line x1="20.11" y1="27.89" x2="7.38" y2="40.62"/>
    <line x1="18.92" y1="26.10" x2="2.29" y2="32.99"/>
    <line x1="18.50" y1="24.00" x2="0.50" y2="24.00"/>
    <line x1="18.92" y1="21.90" x2="2.29" y2="15.01"/>
    <line x1="20.11" y1="20.11" x2="7.38" y2="7.38"/>
    <line x1="21.90" y1="18.92" x2="15.01" y2="2.29"/>
    <line x1="24.00" y1="18.50" x2="24.00" y2="0.50"/>
    <line x1="26.10" y1="18.92" x2="32.99" y2="2.29"/>
    <line x1="27.89" y1="20.11" x2="40.62" y2="7.38"/>
    <line x1="29.08" y1="21.90" x2="45.71" y2="15.01"/>
  </g>
</svg>